<svg width="240" height="17" viewBox="0 0 240 17" fill="none" xmlns="http://www.w3.org/2000/svg">
<path fill-rule="evenodd" clip-rule="evenodd" d="M157.147 0.100553C157.081 0.148524 155.169 0.191742 152.898 0.196946C149.975 0.203508 148.768 0.283385 148.765 0.470064C148.761 0.664211 148.699 0.666021 148.529 0.477305C148.383 0.315289 147.487 0.245596 146.095 0.28791C143.522 0.365976 141.694 0.398108 141.141 0.374802C140.644 0.353984 130.051 0.604926 130.051 0.63751C130.051 0.65086 129.273 0.690913 128.321 0.726665C125.96 0.815366 126.028 0.798395 126.247 1.24281C126.396 1.54534 126.311 1.52543 125.887 1.15908C125.462 0.790927 125.077 0.702226 124.232 0.777803C123.626 0.831884 122.6 0.886644 121.951 0.899541C121.194 0.914476 120.771 1.03101 120.771 1.22425C120.771 1.58222 120.243 1.62952 120.083 1.2858C120.022 1.15365 119.55 1.05228 119.035 1.06043C115.886 1.10975 115.243 1.16248 115.035 1.38785C114.873 1.56299 114.802 1.55349 114.799 1.35594C114.796 1.1575 114.152 1.0731 112.644 1.0731C111.462 1.0731 110.404 1.13826 110.293 1.21791C110.182 1.29756 108.85 1.39758 107.331 1.44035C101.234 1.61141 100.011 1.69491 99.5478 1.97142C99.282 2.13004 99.0646 2.16738 99.0646 2.05447C99.0646 1.94133 98.7975 1.84901 98.4713 1.84901C98.1167 1.84901 97.9402 1.96622 98.033 2.13977C98.2435 2.53485 97.9556 2.50589 97.3516 2.07144C96.9027 1.74854 96.7127 1.74605 95.4842 2.04723C94.7286 2.23232 93.9343 2.30134 93.7093 2.20132C93.485 2.10153 93.1475 2.06171 92.9587 2.11285C92.77 2.16376 91.8369 2.2502 90.8853 2.30473C87.2266 2.51472 85.3624 2.66949 84.9081 2.80141C84.6486 2.87654 83.7073 2.91885 82.8164 2.89532C81.9255 2.87178 81.1148 2.94781 81.0151 3.06389C80.915 3.1802 80.4925 3.2284 80.0754 3.17093C79.6586 3.11368 78.5025 3.18857 77.5059 3.33724C76.5096 3.48613 75.0423 3.64634 74.2455 3.6934C73.4486 3.74047 72.3718 3.83121 71.8527 3.89502C71.3336 3.95883 70.0596 4.06699 69.0214 4.13555C65.7705 4.34961 60.6729 4.90037 60.2623 5.08185C60.1164 5.14611 59.267 5.23096 58.3748 5.27011C56.3567 5.35881 55.5561 5.48689 54.3767 5.91003C53.8469 6.1001 53.4493 6.14468 53.4493 6.01389C53.4493 5.74281 50.8278 6.00529 50.6762 6.29153C50.6218 6.39426 50.3742 6.42232 50.1257 6.35376C49.8366 6.27388 49.6742 6.37548 49.6742 6.63593C49.6742 7.02241 49.6532 7.02196 49.2502 6.62552C48.9733 6.35353 48.6776 6.27433 48.3992 6.39811C48.1645 6.50242 47.5413 6.62145 47.0144 6.66286C46.4875 6.70404 46.0118 6.83279 45.9568 6.94887C45.8982 7.0731 45.5667 7.08056 45.1517 6.96697C44.5097 6.79138 41.9269 7.12288 40.5512 7.55756C40.2917 7.63947 39.888 7.6836 39.6546 7.65576C39.39 7.62409 39.3205 7.71052 39.4703 7.88476C39.6458 8.08931 39.5486 8.11601 39.1085 7.98364C38.2355 7.72116 36.5185 7.82864 35.4936 8.20992C35.005 8.39162 34.1581 8.54029 33.6117 8.54029C33.0649 8.54029 31.4653 8.74213 30.0569 8.98877C28.6481 9.23519 27.1066 9.49179 26.6307 9.55877C26.117 9.63095 25.7656 9.82758 25.7656 10.043C25.7656 10.3444 25.6831 10.3568 25.2805 10.1163C24.9127 9.89682 24.7067 9.89026 24.4311 10.0885C24.2307 10.2326 23.733 10.3505 23.3253 10.3505C21.91 10.3505 19.7884 10.8497 19.7884 11.1828C19.7884 11.371 19.6355 11.4405 19.426 11.3475C19.2268 11.259 18.8729 11.3742 18.6395 11.6036C18.4064 11.8333 18.2154 11.8996 18.2154 11.7514C18.2154 11.6032 17.8615 11.4819 17.429 11.4819C16.9964 11.4819 16.6425 11.5946 16.6425 11.7324C16.6425 11.8702 16.4188 11.9211 16.1458 11.8458C15.2542 11.5996 14.1267 11.9453 14.1157 12.468C14.106 12.943 14.0965 12.9439 13.6438 12.5135C13.1868 12.0786 13.182 12.0786 13.1773 12.5135C13.1735 12.838 13.1034 12.8744 12.9083 12.6531C12.6925 12.4085 12.4195 12.4232 11.4188 12.7339C10.7449 12.9432 9.55641 13.2476 8.7778 13.4105C5.54069 14.0873 4.37451 14.5387 4.6007 15.027C4.66708 15.17 4.55037 15.363 4.34148 15.456C4.10019 15.5633 4.04357 15.5296 4.18639 15.3637C4.89956 14.5333 2.53889 14.7242 1.49037 15.5816C1.18302 15.833 0.919077 15.9072 0.851441 15.7613C0.788209 15.6246 0.534965 15.7835 0.288643 16.1143C-0.0945257 16.6291 -0.095469 16.744 0.281407 16.9115C0.917819 17.1943 1.85277 16.7599 1.87889 16.1693C1.89839 15.7303 1.92922 15.7192 2.1271 16.0808C2.39544 16.5702 2.78584 16.6141 3.15391 16.1964C3.33511 15.9907 3.42163 15.9803 3.42509 16.1638C3.42855 16.3591 3.66795 16.344 4.29492 16.1086C4.77089 15.9301 5.40793 15.7835 5.71057 15.7826C6.0132 15.7819 6.2611 15.6316 6.2611 15.4488C6.2611 15.2465 6.44545 15.1675 6.73298 15.2467C6.99251 15.3185 7.45244 15.3017 7.75539 15.2098C8.05802 15.1178 8.65763 15.0094 9.08767 14.9691C10.2312 14.8616 11.3389 14.3803 11.1699 14.064C11.085 13.9049 11.2457 13.8139 11.5522 13.8479C11.8431 13.88 12.1772 13.7427 12.2949 13.5426C12.4808 13.2263 12.5116 13.2313 12.5308 13.5804C12.5485 13.9017 12.7564 13.9608 13.5753 13.8768C16.2987 13.5976 18.8069 12.8656 18.5951 12.4121C18.4926 12.1924 18.5791 12.1564 18.8824 12.2927C19.4732 12.5579 20.1565 12.6167 20.5569 12.4366C20.7397 12.3544 21.1726 12.2752 21.5186 12.2608C22.0518 12.2381 24.332 11.8983 27.6531 11.3461C28.0856 11.2744 28.7935 11.1586 29.226 11.0886C29.6586 11.0189 30.1166 10.8499 30.2437 10.7128C30.401 10.5433 30.4762 10.5582 30.4797 10.7599C30.4822 10.9228 30.6382 10.9877 30.8263 10.904C31.0145 10.8205 31.0997 10.5632 31.016 10.3326C30.8474 9.86945 31.3297 9.85021 31.9938 10.2939C32.5144 10.642 32.9646 10.6469 34.7492 10.3236C35.5181 10.1844 36.147 9.93891 36.147 9.77803C36.147 9.4807 36.8944 9.45513 37.2886 9.73866C37.4075 9.82419 37.6947 9.78052 37.9269 9.64204C38.2387 9.45581 38.3491 9.45852 38.3491 9.65199C38.3491 9.83121 38.5227 9.84704 38.8996 9.702C39.5398 9.45581 41.0857 9.23292 43.0103 9.11005C43.7572 9.06208 44.5515 8.91387 44.7752 8.78014C44.9992 8.64664 45.8036 8.49707 46.563 8.44819C47.3227 8.39909 48.0503 8.34886 48.18 8.33641C48.3096 8.32419 48.426 8.13593 48.4379 7.91802C48.4562 7.59399 48.4989 7.58358 48.6739 7.86145C48.8878 8.20064 50.3169 8.29613 51.2472 8.0332C51.91 7.84584 54.5016 7.59648 56.884 7.49081C57.9945 7.44148 59.071 7.30096 59.2761 7.17854C59.4812 7.05613 59.9883 6.96494 60.403 6.97602C61.6154 7.00815 67.1137 6.4807 67.2887 6.31552C67.3764 6.23225 67.8024 6.16572 68.2349 6.1673C68.6675 6.16911 69.2693 6.02611 69.5719 5.84938C69.9932 5.60387 70.1225 5.59618 70.1225 5.81635C70.1225 6.01072 70.3518 6.05258 70.8303 5.94578C71.2197 5.85866 71.9877 5.79847 72.5369 5.81205C73.0862 5.82562 73.6257 5.73195 73.7355 5.6041C73.8673 5.45068 74.1297 5.44593 74.5044 5.59007C74.8174 5.71045 75.1713 5.73851 75.2908 5.65229C75.4107 5.56631 76.1018 5.46675 76.8267 5.43145C78.9095 5.32962 81.2759 5.1796 81.4476 5.13819C81.5341 5.11737 82.0649 5.11828 82.6273 5.14045C83.2134 5.16353 83.6498 5.07121 83.6498 4.9239C83.6498 4.78248 83.7913 4.72976 83.9643 4.80669C84.1374 4.88363 84.2789 4.8386 84.2789 4.7069C84.2789 4.57521 84.429 4.46727 84.6121 4.46727C84.7952 4.46727 84.8578 4.5691 84.7508 4.69355C84.6439 4.81801 84.848 4.91983 85.2041 4.91983C85.5602 4.91983 85.8519 4.8429 85.8519 4.74899C85.8519 4.65486 86.8076 4.56865 87.9753 4.55733C89.1431 4.54579 90.6651 4.46048 91.3572 4.36771C92.0493 4.27516 92.9417 4.20796 93.3406 4.21859C93.7896 4.23059 93.9849 4.1437 93.8531 3.99073C93.7005 3.81288 93.8226 3.81333 94.2872 3.99209C95.0253 4.2763 97.8062 4.33219 97.8062 4.06291C97.8062 3.78753 99.1435 3.78007 99.6006 4.05296C99.8705 4.21407 100.008 4.21769 100.008 4.06359C100.008 3.93552 100.291 3.88415 100.638 3.9491C100.984 4.01426 101.267 3.97919 101.267 3.87148C101.267 3.76355 102.256 3.68865 103.464 3.70517C105.025 3.72644 105.6 3.66082 105.449 3.47889C105.331 3.33792 105.475 3.36258 105.768 3.5332C106.061 3.70404 106.3 3.75495 106.3 3.64634C106.301 3.53795 107.246 3.44563 108.401 3.44133C109.801 3.43612 110.546 3.3386 110.634 3.14898C110.735 2.93084 110.869 2.92609 111.207 3.12793C111.45 3.27275 111.65 3.30239 111.653 3.19378C111.656 3.08539 111.787 3.14332 111.945 3.32298C112.175 3.58456 112.389 3.59814 113.02 3.39132C113.621 3.19446 113.845 3.1974 113.963 3.40422C114.063 3.58072 114.208 3.59633 114.377 3.44902C114.52 3.32457 115.274 3.21595 116.052 3.20781C116.831 3.19966 117.822 3.13608 118.254 3.06661C118.687 2.99714 119.215 3.03991 119.428 3.16187C119.68 3.30647 120.123 3.30601 120.703 3.16052C121.192 3.0381 122.205 2.97746 122.954 3.02588C123.703 3.07453 124.76 3.02588 125.303 2.91817C125.846 2.81024 126.59 2.80164 126.956 2.89916C127.525 3.05054 127.599 3.00484 127.472 2.58373C127.357 2.20291 127.395 2.16489 127.641 2.41651C128.034 2.81816 129.892 2.95483 129.899 2.58283C129.902 2.42941 130.032 2.46064 130.209 2.65705C130.376 2.84373 130.516 2.90754 130.519 2.79915C130.521 2.69053 130.723 2.72086 130.967 2.86658C131.476 3.17002 131.96 2.8211 131.604 2.40724C131.486 2.26988 131.764 2.33415 132.222 2.55002C132.978 2.90618 133.671 2.92609 139.733 2.76521C143.405 2.66768 146.728 2.59278 147.118 2.59867C147.507 2.60432 147.826 2.51811 147.826 2.40678C147.826 2.29545 148.047 2.20449 148.316 2.20449C148.586 2.20449 148.726 2.29772 148.629 2.41153C148.373 2.70909 152.183 2.55477 152.607 2.25042C152.833 2.08728 153.146 2.0728 153.501 2.20924C153.8 2.32464 154.522 2.4224 155.104 2.42647C155.686 2.43077 156.764 2.45883 157.499 2.48892C158.51 2.53056 158.838 2.46109 158.841 2.20449C158.845 1.95355 158.91 1.93793 159.093 2.14453C159.355 2.44186 160.765 2.46675 169.532 2.32985C175.346 2.23888 174.855 2.24137 178.944 2.28369C181.321 2.30835 182.257 2.24001 182.352 2.03478C182.424 1.87933 182.613 1.75193 182.771 1.75193C182.93 1.75193 183.024 1.87933 182.981 2.03478C182.885 2.37895 184.99 2.42941 185.336 2.09135C185.48 1.95015 185.568 1.96871 185.572 2.14113C185.574 2.31061 186.001 2.40542 186.677 2.38732C187.283 2.3708 187.778 2.27803 187.778 2.18073C187.778 2.08366 188.097 2.06035 188.486 2.12869C189.541 2.31446 195.547 2.27373 195.988 2.078C196.229 1.97052 196.288 2.0031 196.147 2.1667C195.83 2.53599 198.255 2.39072 198.908 2.00129C199.339 1.74356 199.418 1.74808 199.418 2.02958C199.418 2.26513 199.737 2.3527 200.509 2.32849C201.109 2.30993 201.683 2.23526 201.783 2.16285C201.884 2.09022 202.489 2.11556 203.127 2.2192C203.765 2.32261 204.89 2.34795 205.627 2.27509C206.803 2.15923 206.973 2.07031 207.005 1.55145C207.042 0.978964 207.049 0.98168 207.243 1.63042C207.437 2.28278 207.498 2.30247 209.486 2.35496C210.61 2.38461 211.813 2.45181 212.159 2.50385C212.505 2.55613 212.934 2.51585 213.113 2.41448C213.459 2.21852 214.156 2.24182 214.676 2.46652C214.849 2.54142 215.415 2.55748 215.934 2.50227C216.453 2.44729 217.019 2.41719 217.192 2.43529C217.365 2.45339 218.923 2.50476 220.653 2.54911C222.383 2.59369 224.273 2.69348 224.853 2.77109C225.616 2.87337 226.072 2.80503 226.504 2.52331C226.895 2.2692 227.102 2.23096 227.102 2.41312C227.102 2.59188 227.483 2.66813 228.168 2.62559C228.754 2.58939 229.473 2.7023 229.765 2.87654C230.221 3.14898 230.336 3.14784 230.582 2.86884C230.78 2.64324 230.869 2.63035 230.872 2.82675C230.875 2.98243 231.17 3.1096 231.527 3.1096C232.044 3.1096 232.142 3.00506 232.002 2.60048C231.906 2.32057 231.908 2.21874 232.007 2.3742C232.106 2.52988 232.326 2.65705 232.495 2.65705C232.664 2.65705 232.71 2.52988 232.598 2.3742C232.487 2.21874 232.669 2.33279 233.003 2.62808C233.524 3.0872 233.64 3.11164 233.807 2.79779C234.049 2.34523 234.839 2.31672 235.071 2.75231C235.247 3.08245 235.789 3.10915 236.433 2.81974C236.886 2.61586 237.871 2.8616 238.207 3.26234C238.542 3.66172 240 3.65199 240 3.25035C240 2.77516 239.295 2.45453 237.931 2.31016C237.252 2.23843 236.272 2.09248 235.753 1.98613C235.234 1.87978 234.597 1.79176 234.337 1.7904C234.078 1.78927 233.512 1.71935 233.079 1.63495C231.843 1.39419 228.982 1.07129 227.259 0.97806C226.394 0.93122 225.049 0.830073 224.271 0.753139C223.492 0.676204 220.519 0.561481 217.664 0.497897C214.809 0.434539 211.766 0.339276 210.901 0.286553C206.961 0.0457928 199.946 -0.035441 199.454 0.15418C199.156 0.268904 198.741 0.286326 198.531 0.193326C198.322 0.100099 197.438 0.0894648 196.567 0.169794C195.696 0.250123 194.92 0.241976 194.843 0.151691C194.701 -0.0128135 157.375 -0.0634994 157.147 0.100553ZM199.261 0.846818C199.368 0.971271 199.305 1.0731 199.122 1.0731C198.939 1.0731 198.789 0.971271 198.789 0.846818C198.789 0.722365 198.851 0.62054 198.928 0.62054C199.004 0.62054 199.154 0.722365 199.261 0.846818ZM214.833 1.52565C214.648 1.77456 214.444 1.97821 214.379 1.97821C214.315 1.97821 214.337 1.77456 214.427 1.52565C214.518 1.27675 214.722 1.0731 214.881 1.0731C215.04 1.0731 215.019 1.27562 214.833 1.52565ZM188.722 1.52565C188.722 1.65011 188.66 1.75193 188.583 1.75193C188.507 1.75193 188.357 1.65011 188.25 1.52565C188.143 1.4012 188.206 1.29938 188.389 1.29938C188.572 1.29938 188.722 1.4012 188.722 1.52565ZM142.163 1.87842C142.163 2.07234 142.022 2.16828 141.849 2.09135C141.676 2.01442 141.534 1.85579 141.534 1.73858C141.534 1.62137 141.676 1.52565 141.849 1.52565C142.022 1.52565 142.163 1.6845 142.163 1.87842ZM236.379 3.11322C236.27 3.23971 236.05 3.28474 235.889 3.21301C235.728 3.14151 235.596 3.19084 235.596 3.32253C235.596 3.66851 236.085 3.61692 236.54 3.22274C236.755 3.03606 236.851 2.88332 236.754 2.88332C236.657 2.88332 236.488 2.98673 236.379 3.11322ZM87.7394 3.78844C87.7394 3.91289 87.6771 4.01472 87.6007 4.01472C87.5242 4.01472 87.3745 3.91289 87.2675 3.78844C87.1606 3.66399 87.2232 3.56216 87.4062 3.56216C87.5893 3.56216 87.7394 3.66399 87.7394 3.78844ZM9.14996 14.2464C8.9244 14.4086 8.7778 14.4219 8.7778 14.2803C8.7778 13.9782 9.14996 13.7105 9.35979 13.8617C9.44913 13.9259 9.35476 14.099 9.14996 14.2464Z" fill="#0D5FF9"/>
</svg>
