<svg width="181" height="54" viewBox="0 0 181 54" fill="none" xmlns="http://www.w3.org/2000/svg">
<path d="M70.46 38V17.21H84.05V20.66H74.57V25.43H83V28.82H74.57V34.55H84.77V38H70.46ZM95.0295 38.39C93.3495 38.39 91.8995 38.06 90.6795 37.4C89.4795 36.74 88.5495 35.8 87.8895 34.58C87.2495 33.34 86.9295 31.88 86.9295 30.2C86.9295 28.52 87.2095 27.06 87.7695 25.82C88.3295 24.58 89.1295 23.63 90.1695 22.97C91.2295 22.29 92.4995 21.95 93.9795 21.95C94.6795 21.95 95.2995 22.03 95.8395 22.19C96.3995 22.35 96.9195 22.54 97.3995 22.76V15.35L101.3 14.72V37.49C100.82 37.65 100.23 37.8 99.5295 37.94C98.8295 38.06 98.0895 38.16 97.3095 38.24C96.5495 38.34 95.7895 38.39 95.0295 38.39ZM95.0595 35.03C95.5795 35.03 96.0395 35.01 96.4395 34.97C96.8395 34.91 97.1595 34.86 97.3995 34.82V26.09C97.0995 25.87 96.6895 25.68 96.1695 25.52C95.6695 25.36 95.1295 25.28 94.5495 25.28C93.9295 25.28 93.3895 25.39 92.9295 25.61C92.4895 25.81 92.1195 26.12 91.8195 26.54C91.5195 26.94 91.2995 27.44 91.1595 28.04C91.0195 28.62 90.9495 29.29 90.9495 30.05C90.9495 31.07 91.1095 31.95 91.4295 32.69C91.7495 33.43 92.2195 34.01 92.8395 34.43C93.4595 34.83 94.1995 35.03 95.0595 35.03ZM112.269 38.33C110.549 38.33 109.189 38.02 108.189 37.4C107.209 36.78 106.519 35.93 106.119 34.85C105.719 33.75 105.519 32.48 105.519 31.04V22.28H109.449V30.5C109.449 31.56 109.539 32.42 109.719 33.08C109.919 33.74 110.249 34.22 110.709 34.52C111.169 34.82 111.779 34.97 112.539 34.97C112.999 34.97 113.439 34.95 113.859 34.91C114.299 34.87 114.649 34.83 114.909 34.79V22.28H118.809V37.46C118.089 37.66 117.149 37.85 115.989 38.03C114.849 38.23 113.609 38.33 112.269 38.33ZM139.741 38V22.28H143.641V38H139.741ZM141.691 19.46C141.051 19.46 140.491 19.25 140.011 18.83C139.531 18.39 139.291 17.8 139.291 17.06C139.291 16.32 139.531 15.74 140.011 15.32C140.491 14.9 141.051 14.69 141.691 14.69C142.351 14.69 142.911 14.9 143.371 15.32C143.851 15.74 144.091 16.32 144.091 17.06C144.091 17.8 143.851 18.39 143.371 18.83C142.911 19.25 142.351 19.46 141.691 19.46ZM148.091 38V22.82C148.811 22.62 149.741 22.42 150.881 22.22C152.041 22.02 153.291 21.92 154.631 21.92C156.391 21.92 157.751 22.23 158.711 22.85C159.691 23.45 160.371 24.29 160.751 25.37C161.151 26.45 161.351 27.71 161.351 29.15V38H157.451V29.69C157.451 28.63 157.351 27.78 157.151 27.14C156.971 26.48 156.661 26.01 156.221 25.73C155.781 25.43 155.161 25.28 154.361 25.28C153.901 25.28 153.451 25.31 153.011 25.37C152.591 25.41 152.251 25.45 151.991 25.49V38H148.091ZM165.64 38V15.35L169.54 14.72V28.25C170 27.77 170.47 27.26 170.95 26.72C171.45 26.18 171.94 25.64 172.42 25.1C172.92 24.56 173.38 24.05 173.8 23.57C174.24 23.07 174.61 22.64 174.91 22.28H179.56C178.9 23.04 178.21 23.81 177.49 24.59C176.77 25.37 176.04 26.15 175.3 26.93C174.56 27.69 173.81 28.46 173.05 29.24C173.65 29.76 174.27 30.38 174.91 31.1C175.57 31.82 176.21 32.59 176.83 33.41C177.45 34.21 178.02 35.01 178.54 35.81C179.08 36.59 179.53 37.32 179.89 38H175.39C174.91 37.22 174.35 36.39 173.71 35.51C173.07 34.61 172.39 33.75 171.67 32.93C170.95 32.11 170.24 31.43 169.54 30.89V38H165.64Z" fill="#1F242E"/>
<path d="M123.487 38V17.21H127.597V34.46H136.927V38H123.487Z" fill="#0067E3"/>
<circle cx="27" cy="27" r="27" fill="#0067E3"/>
<path d="M17.5317 14.9682C16.5841 15.0184 15.398 15.2004 14.557 15.4138C13.8416 15.5958 13.7475 15.7088 13.7161 16.3803L13.691 16.8447H12.5488C11.3313 16.8447 11.2435 16.8698 11.074 17.2024C10.9673 17.4095 10.9799 37.4038 11.0866 37.6172C11.1305 37.705 11.2686 37.8243 11.3941 37.887L11.6263 38L12.4296 37.6548C16.6845 35.8412 21.3787 35.4458 26.2047 36.4876L27.0645 36.6758L27.8992 36.4938C28.9284 36.2679 30.1961 36.0734 31.15 35.9855C32.5934 35.86 35.2292 35.9353 36.478 36.1487C38.5678 36.4938 40.1179 36.9457 41.7622 37.6674C42.5654 38.0251 42.7286 38.0314 42.9796 37.7301L43.1365 37.5419V27.4443C43.1365 16.4556 43.1554 17.0831 42.7914 16.92C42.6847 16.8698 42.2391 16.8447 41.5049 16.8447H40.3752V16.3677C40.3752 15.8343 40.3188 15.6899 40.074 15.5644C39.6221 15.3385 37.9152 15.0498 36.478 14.9682C32.8256 14.7486 29.7819 15.646 27.5414 17.5915L27.0457 18.0245L26.5938 17.604C25.2634 16.3614 23.3242 15.4766 21.1402 15.1251C20.5503 15.031 18.881 14.8929 18.5358 14.9117C18.448 14.9117 17.9961 14.9368 17.5317 14.9682ZM21.0022 16.3991C23.0857 16.7944 24.6421 17.5413 25.9098 18.7399L26.4432 19.242V26.9862C26.4432 31.2474 26.4306 34.7304 26.4118 34.7304C26.393 34.7304 26.2612 34.6551 26.1106 34.5609C25.0814 33.9083 23.3116 33.3121 21.6046 33.0422C19.6968 32.7347 17.9773 32.7096 15.4482 32.9481L14.9587 32.992V24.8022V16.6125L15.4796 16.512C15.9377 16.4242 16.5401 16.3363 17.2179 16.2547C17.3372 16.2422 18.0902 16.2359 18.881 16.2485C20.0169 16.261 20.4687 16.2987 21.0022 16.3991ZM37.8399 16.3677C38.2227 16.4242 38.6745 16.5058 38.844 16.5497L39.1515 16.625L39.1703 24.8085L39.1828 32.992L38.6996 32.9481C37.2688 32.8163 36.7353 32.7849 35.7563 32.7849C32.8758 32.7849 30.3404 33.3309 28.3447 34.3852L27.6983 34.7241V26.9862V19.2482L28.1251 18.8278C29.5873 17.3906 31.3006 16.6564 34.1309 16.2547C34.5765 16.192 37.1809 16.2736 37.8399 16.3677ZM13.7663 26.026V33.9522L13.8981 34.0965C14.0989 34.3099 14.2746 34.3538 14.7202 34.2848C15.6615 34.1467 17.2807 34.04 18.4417 34.04C20.1675 34.04 21.6172 34.2283 22.9916 34.63L23.525 34.7868L22.9288 34.7429C21.9874 34.6739 19.2638 34.699 18.5044 34.7806C16.5527 35.0065 14.4503 35.5148 12.6869 36.1926L12.2601 36.3558V27.2309V18.0998H13.0132H13.7663V26.026ZM41.8814 27.2309V36.3558L41.4609 36.1926C39.4151 35.4207 37.1433 34.9061 34.953 34.7241C34.0933 34.6551 31.721 34.6802 30.8989 34.7617C30.6605 34.7868 30.6981 34.768 31.1186 34.6362C31.8215 34.4229 33.0578 34.1844 33.9426 34.0965C34.884 34.0024 37.6641 34.0589 38.7122 34.1907C39.6096 34.3099 39.961 34.3162 40.1368 34.222C40.4443 34.0589 40.438 34.2848 40.438 25.913V18.0998H41.1597H41.8814V27.2309Z" fill="white"/>
</svg>
