<svg width="54" height="54" viewBox="0 0 54 54" fill="none" xmlns="http://www.w3.org/2000/svg">
<circle cx="27" cy="27" r="27" fill="#0067E3"/>
<path d="M17.5317 14.9682C16.5841 15.0184 15.398 15.2004 14.557 15.4138C13.8416 15.5958 13.7475 15.7088 13.7161 16.3803L13.691 16.8447H12.5488C11.3313 16.8447 11.2435 16.8698 11.074 17.2024C10.9673 17.4095 10.9799 37.4038 11.0866 37.6172C11.1305 37.705 11.2686 37.8243 11.3941 37.887L11.6263 38L12.4296 37.6548C16.6845 35.8412 21.3787 35.4458 26.2047 36.4876L27.0645 36.6758L27.8992 36.4938C28.9284 36.2679 30.1961 36.0734 31.15 35.9855C32.5934 35.86 35.2292 35.9353 36.478 36.1487C38.5678 36.4938 40.1179 36.9457 41.7622 37.6674C42.5654 38.0251 42.7286 38.0314 42.9796 37.7301L43.1365 37.5419V27.4443C43.1365 16.4556 43.1554 17.0831 42.7914 16.92C42.6847 16.8698 42.2391 16.8447 41.5049 16.8447H40.3752V16.3677C40.3752 15.8343 40.3188 15.6899 40.074 15.5644C39.6221 15.3385 37.9152 15.0498 36.478 14.9682C32.8256 14.7486 29.7819 15.646 27.5414 17.5915L27.0457 18.0245L26.5938 17.604C25.2634 16.3614 23.3242 15.4766 21.1402 15.1251C20.5503 15.031 18.881 14.8929 18.5358 14.9117C18.448 14.9117 17.9961 14.9368 17.5317 14.9682ZM21.0022 16.3991C23.0857 16.7944 24.6421 17.5413 25.9098 18.7399L26.4432 19.242V26.9862C26.4432 31.2474 26.4306 34.7304 26.4118 34.7304C26.393 34.7304 26.2612 34.6551 26.1106 34.5609C25.0814 33.9083 23.3116 33.3121 21.6046 33.0422C19.6968 32.7347 17.9773 32.7096 15.4482 32.9481L14.9587 32.992V24.8022V16.6125L15.4796 16.512C15.9377 16.4242 16.5401 16.3363 17.2179 16.2547C17.3372 16.2422 18.0902 16.2359 18.881 16.2485C20.0169 16.261 20.4687 16.2987 21.0022 16.3991ZM37.8399 16.3677C38.2227 16.4242 38.6745 16.5058 38.844 16.5497L39.1515 16.625L39.1703 24.8085L39.1828 32.992L38.6996 32.9481C37.2688 32.8163 36.7353 32.7849 35.7563 32.7849C32.8758 32.7849 30.3404 33.3309 28.3447 34.3852L27.6983 34.7241V26.9862V19.2482L28.1251 18.8278C29.5873 17.3906 31.3006 16.6564 34.1309 16.2547C34.5765 16.192 37.1809 16.2736 37.8399 16.3677ZM13.7663 26.026V33.9522L13.8981 34.0965C14.0989 34.3099 14.2746 34.3538 14.7202 34.2848C15.6615 34.1467 17.2807 34.04 18.4417 34.04C20.1675 34.04 21.6172 34.2283 22.9916 34.63L23.525 34.7868L22.9288 34.7429C21.9874 34.6739 19.2638 34.699 18.5044 34.7806C16.5527 35.0065 14.4503 35.5148 12.6869 36.1926L12.2601 36.3558V27.2309V18.0998H13.0132H13.7663V26.026ZM41.8814 27.2309V36.3558L41.4609 36.1926C39.4151 35.4207 37.1433 34.9061 34.953 34.7241C34.0933 34.6551 31.721 34.6802 30.8989 34.7617C30.6605 34.7868 30.6981 34.768 31.1186 34.6362C31.8215 34.4229 33.0578 34.1844 33.9426 34.0965C34.884 34.0024 37.6641 34.0589 38.7122 34.1907C39.6096 34.3099 39.961 34.3162 40.1368 34.222C40.4443 34.0589 40.438 34.2848 40.438 25.913V18.0998H41.1597H41.8814V27.2309Z" fill="white"/>
</svg>
